<mxfile host="app.diagrams.net" agent="Mozilla/5.0 (Windows NT 10.0; Win64; x64) AppleWebKit/537.36 (KHTML, like Gecko) Chrome/127.0.0.0 Safari/537.36" version="24.7.7">
  <diagram name="Página-1" id="Mrr6eb9MkcwM1nUKOjH5">
    <mxGraphModel dx="1434" dy="738" grid="1" gridSize="10" guides="1" tooltips="1" connect="1" arrows="1" fold="1" page="1" pageScale="1" pageWidth="827" pageHeight="1169" math="0" shadow="0">
      <root>
        <mxCell id="0" />
        <mxCell id="1" parent="0" />
        <mxCell id="kDoMDWF8o8JlnwgI4Ed1-1" value="Filme" style="rounded=0;whiteSpace=wrap;html=1;" vertex="1" parent="1">
          <mxGeometry x="230" y="140" width="120" height="60" as="geometry" />
        </mxCell>
        <mxCell id="kDoMDWF8o8JlnwgI4Ed1-2" value="Possui" style="rhombus;whiteSpace=wrap;html=1;" vertex="1" parent="1">
          <mxGeometry x="390" y="130" width="80" height="80" as="geometry" />
        </mxCell>
        <mxCell id="kDoMDWF8o8JlnwgI4Ed1-3" value="Gênero" style="rounded=0;whiteSpace=wrap;html=1;" vertex="1" parent="1">
          <mxGeometry x="520" y="140" width="120" height="60" as="geometry" />
        </mxCell>
        <mxCell id="kDoMDWF8o8JlnwgI4Ed1-4" value="" style="endArrow=none;html=1;rounded=0;entryX=0;entryY=0.5;entryDx=0;entryDy=0;exitX=1;exitY=0.5;exitDx=0;exitDy=0;" edge="1" parent="1" source="kDoMDWF8o8JlnwgI4Ed1-1" target="kDoMDWF8o8JlnwgI4Ed1-2">
          <mxGeometry width="50" height="50" relative="1" as="geometry">
            <mxPoint x="390" y="410" as="sourcePoint" />
            <mxPoint x="440" y="360" as="targetPoint" />
          </mxGeometry>
        </mxCell>
        <mxCell id="kDoMDWF8o8JlnwgI4Ed1-5" value="" style="endArrow=none;html=1;rounded=0;entryX=0;entryY=0.5;entryDx=0;entryDy=0;exitX=1;exitY=0.5;exitDx=0;exitDy=0;" edge="1" parent="1" source="kDoMDWF8o8JlnwgI4Ed1-2" target="kDoMDWF8o8JlnwgI4Ed1-3">
          <mxGeometry width="50" height="50" relative="1" as="geometry">
            <mxPoint x="390" y="410" as="sourcePoint" />
            <mxPoint x="440" y="360" as="targetPoint" />
          </mxGeometry>
        </mxCell>
        <mxCell id="kDoMDWF8o8JlnwgI4Ed1-6" value="Código" style="ellipse;whiteSpace=wrap;html=1;fontStyle=4" vertex="1" parent="1">
          <mxGeometry x="40" y="20" width="120" height="50" as="geometry" />
        </mxCell>
        <mxCell id="kDoMDWF8o8JlnwgI4Ed1-7" value="Código" style="ellipse;whiteSpace=wrap;html=1;fontStyle=4" vertex="1" parent="1">
          <mxGeometry x="690" y="10" width="120" height="40" as="geometry" />
        </mxCell>
        <mxCell id="kDoMDWF8o8JlnwgI4Ed1-9" value="Nome" style="ellipse;whiteSpace=wrap;html=1;" vertex="1" parent="1">
          <mxGeometry x="50" y="90" width="120" height="50" as="geometry" />
        </mxCell>
        <mxCell id="kDoMDWF8o8JlnwgI4Ed1-10" value="Tipo" style="ellipse;whiteSpace=wrap;html=1;" vertex="1" parent="1">
          <mxGeometry x="50" y="160" width="120" height="50" as="geometry" />
        </mxCell>
        <mxCell id="kDoMDWF8o8JlnwgI4Ed1-11" value="Plataforma" style="ellipse;whiteSpace=wrap;html=1;" vertex="1" parent="1">
          <mxGeometry x="50" y="220" width="120" height="50" as="geometry" />
        </mxCell>
        <mxCell id="kDoMDWF8o8JlnwgI4Ed1-12" value="Tipo" style="ellipse;whiteSpace=wrap;html=1;" vertex="1" parent="1">
          <mxGeometry x="690" y="70" width="120" height="40" as="geometry" />
        </mxCell>
        <mxCell id="kDoMDWF8o8JlnwgI4Ed1-13" value="Data_lançamento" style="ellipse;whiteSpace=wrap;html=1;" vertex="1" parent="1">
          <mxGeometry x="60" y="280" width="120" height="60" as="geometry" />
        </mxCell>
        <mxCell id="kDoMDWF8o8JlnwgI4Ed1-14" value="Duração" style="ellipse;whiteSpace=wrap;html=1;" vertex="1" parent="1">
          <mxGeometry x="60" y="350" width="120" height="50" as="geometry" />
        </mxCell>
        <mxCell id="kDoMDWF8o8JlnwgI4Ed1-15" value="Tipo" style="ellipse;whiteSpace=wrap;html=1;" vertex="1" parent="1">
          <mxGeometry x="700" y="140" width="120" height="50" as="geometry" />
        </mxCell>
        <mxCell id="kDoMDWF8o8JlnwgI4Ed1-16" value="" style="endArrow=none;html=1;rounded=0;entryX=0;entryY=1;entryDx=0;entryDy=0;exitX=1;exitY=0.5;exitDx=0;exitDy=0;" edge="1" parent="1" source="kDoMDWF8o8JlnwgI4Ed1-14" target="kDoMDWF8o8JlnwgI4Ed1-1">
          <mxGeometry width="50" height="50" relative="1" as="geometry">
            <mxPoint x="390" y="410" as="sourcePoint" />
            <mxPoint x="440" y="360" as="targetPoint" />
          </mxGeometry>
        </mxCell>
        <mxCell id="kDoMDWF8o8JlnwgI4Ed1-18" value="" style="endArrow=none;html=1;rounded=0;entryX=0;entryY=0.75;entryDx=0;entryDy=0;exitX=0.967;exitY=0.35;exitDx=0;exitDy=0;exitPerimeter=0;" edge="1" parent="1" source="kDoMDWF8o8JlnwgI4Ed1-13" target="kDoMDWF8o8JlnwgI4Ed1-1">
          <mxGeometry width="50" height="50" relative="1" as="geometry">
            <mxPoint x="390" y="410" as="sourcePoint" />
            <mxPoint x="440" y="360" as="targetPoint" />
          </mxGeometry>
        </mxCell>
        <mxCell id="kDoMDWF8o8JlnwgI4Ed1-19" value="" style="endArrow=none;html=1;rounded=0;entryX=0;entryY=0.75;entryDx=0;entryDy=0;exitX=1;exitY=0.5;exitDx=0;exitDy=0;" edge="1" parent="1" source="kDoMDWF8o8JlnwgI4Ed1-11" target="kDoMDWF8o8JlnwgI4Ed1-1">
          <mxGeometry width="50" height="50" relative="1" as="geometry">
            <mxPoint x="390" y="410" as="sourcePoint" />
            <mxPoint x="440" y="360" as="targetPoint" />
          </mxGeometry>
        </mxCell>
        <mxCell id="kDoMDWF8o8JlnwgI4Ed1-20" value="" style="endArrow=none;html=1;rounded=0;entryX=-0.017;entryY=0.633;entryDx=0;entryDy=0;entryPerimeter=0;exitX=1;exitY=0.5;exitDx=0;exitDy=0;" edge="1" parent="1" source="kDoMDWF8o8JlnwgI4Ed1-10" target="kDoMDWF8o8JlnwgI4Ed1-1">
          <mxGeometry width="50" height="50" relative="1" as="geometry">
            <mxPoint x="390" y="410" as="sourcePoint" />
            <mxPoint x="440" y="360" as="targetPoint" />
          </mxGeometry>
        </mxCell>
        <mxCell id="kDoMDWF8o8JlnwgI4Ed1-21" value="" style="endArrow=none;html=1;rounded=0;entryX=0;entryY=0.5;entryDx=0;entryDy=0;" edge="1" parent="1" source="kDoMDWF8o8JlnwgI4Ed1-9" target="kDoMDWF8o8JlnwgI4Ed1-1">
          <mxGeometry width="50" height="50" relative="1" as="geometry">
            <mxPoint x="390" y="410" as="sourcePoint" />
            <mxPoint x="440" y="360" as="targetPoint" />
          </mxGeometry>
        </mxCell>
        <mxCell id="kDoMDWF8o8JlnwgI4Ed1-22" value="" style="endArrow=none;html=1;rounded=0;entryX=1;entryY=0.5;entryDx=0;entryDy=0;" edge="1" parent="1" target="kDoMDWF8o8JlnwgI4Ed1-6">
          <mxGeometry width="50" height="50" relative="1" as="geometry">
            <mxPoint x="230" y="160" as="sourcePoint" />
            <mxPoint x="440" y="360" as="targetPoint" />
          </mxGeometry>
        </mxCell>
        <mxCell id="kDoMDWF8o8JlnwgI4Ed1-23" value="" style="endArrow=none;html=1;rounded=0;entryX=0.208;entryY=0.86;entryDx=0;entryDy=0;entryPerimeter=0;exitX=1;exitY=0.75;exitDx=0;exitDy=0;" edge="1" parent="1" source="kDoMDWF8o8JlnwgI4Ed1-3" target="kDoMDWF8o8JlnwgI4Ed1-15">
          <mxGeometry width="50" height="50" relative="1" as="geometry">
            <mxPoint x="390" y="410" as="sourcePoint" />
            <mxPoint x="440" y="360" as="targetPoint" />
          </mxGeometry>
        </mxCell>
        <mxCell id="kDoMDWF8o8JlnwgI4Ed1-24" value="" style="endArrow=none;html=1;rounded=0;exitX=1;exitY=0.5;exitDx=0;exitDy=0;" edge="1" parent="1" source="kDoMDWF8o8JlnwgI4Ed1-3" target="kDoMDWF8o8JlnwgI4Ed1-12">
          <mxGeometry width="50" height="50" relative="1" as="geometry">
            <mxPoint x="390" y="410" as="sourcePoint" />
            <mxPoint x="440" y="360" as="targetPoint" />
          </mxGeometry>
        </mxCell>
        <mxCell id="kDoMDWF8o8JlnwgI4Ed1-25" value="" style="endArrow=none;html=1;rounded=0;entryX=0.025;entryY=0.325;entryDx=0;entryDy=0;entryPerimeter=0;exitX=1;exitY=0;exitDx=0;exitDy=0;" edge="1" parent="1" source="kDoMDWF8o8JlnwgI4Ed1-3" target="kDoMDWF8o8JlnwgI4Ed1-7">
          <mxGeometry width="50" height="50" relative="1" as="geometry">
            <mxPoint x="390" y="410" as="sourcePoint" />
            <mxPoint x="440" y="360" as="targetPoint" />
          </mxGeometry>
        </mxCell>
        <mxCell id="kDoMDWF8o8JlnwgI4Ed1-26" value="1:1" style="text;html=1;align=center;verticalAlign=middle;whiteSpace=wrap;rounded=0;" vertex="1" parent="1">
          <mxGeometry x="350" y="140" width="60" height="30" as="geometry" />
        </mxCell>
        <mxCell id="kDoMDWF8o8JlnwgI4Ed1-27" value="0:1" style="text;html=1;align=center;verticalAlign=middle;whiteSpace=wrap;rounded=0;" vertex="1" parent="1">
          <mxGeometry x="460" y="140" width="60" height="30" as="geometry" />
        </mxCell>
      </root>
    </mxGraphModel>
  </diagram>
</mxfile>
